{"title":"Manchivadu (2011) Telugu 1CD DTH Rip XviD MP3-=MTR=-@Mastitorren","uid":6722200,"size":806315317,"categoryP":"video","categoryS":"movies","magnet":"?xt=urn:btih:394ebbf107273c45c44816e86a763235c7eefb67&amp;dn=Manchivadu+%282011%29+Telugu+1CD+DTH+Rip+XviD+MP3-%3DMTR%3D-%40Mastitorren&amp;tr=udp%3A%2F%2Ftracker.openbittorrent.com%3A80&amp;tr=udp%3A%2F%2Fopen.demonii.com%3A1337&amp;tr=udp%3A%2F%2Ftracker.coppersurfer.tk%3A6969&amp;tr=udp%3A%2F%2Fexodus.desync.com%3A6969","seeders":0,"leechers":1,"uploader":"HDvideos","files":-1,"time":1317825829,"description":"mastitorrents.com\n  &lt;a href=&quot;\nhttp://mastitorrents.com/forums/index.php&quot; rel=&quot;nofollow&quot; target=&quot;_NEW&quot;&gt;\nhttp://mastitorrents.com/forums/index.php&lt;/a&gt;\n\nManchivadu (2011) Telugu 1CD DTH Rip XviD MP3-=MTR=-@Mastitorrents\n &lt;a href=&quot;\nhttp://thepiratebay.se/user/HDvideos/0/7&quot; rel=&quot;nofollow&quot; target=&quot;_NEW&quot;&gt;\nhttp://thepiratebay.se/user/HDvideos/0/7&lt;/a&gt;\n\nGeneral\nComplete name                    : Manchivadu (2011) - 1CD - DTH - Rip - XviD - MP3\nFormat                           : AVI\nFormat/Info                      : Audio Video Interleave\nFile size                        : 769 MiB\nDuration                         : 2h 4mn\nOverall bit rate                 : 861 Kbps\nWriting application              : Lavf51.12.2\n\nVideo\nID                               : 0\nFormat                           : xvid\nCodec ID                         : xvid\nDuration                         : 2h 4mn\nBit rate                         : 752 Kbps\nWidth                            : 720 pixels\nHeight                           : 480 pixels\nDisplay aspect ratio             : 3:2\nFrame rate                       : 25.000 fps\nStandard                         : NTSC\nBits/(Pixel*Frame)               : 0.087\nStream size                      : 672 MiB (87%)\n\nAudio\nID                               : 1\nFormat                           : MPEG Audio\nFormat version                   : Version 1\nFormat profile                   : Layer 3\nMode                             : Joint stereo\nMode extension                   : MS Stereo\nCodec ID                         : 55\nCodec ID/Hint                    : MP3\nDuration                         : 2h 4mn\nBit rate mode                    : Constant\nBit rate                         : 96.0 Kbps\nChannel(s)                       : 2 channels\nSampling rate                    : 48.0 KHz\nCompression mode                 : Lossy\nStream size                      : 85.7 MiB (11%)\nAlignment                        : Aligned on interleaves\nInterleave, duration             : 24 ms (0.60 video frame)\nInterleave, preload duration     : 25 ms\n\nCredits to Original Ripper\n\nRecommended Player:VLC Player\n\nfacebook. com/MastiTorrents\n\nfacebook. com/MastiTorrentsReleasers\t","torrent":{"xt":"urn:btih:394ebbf107273c45c44816e86a763235c7eefb67","amp;dn":"Manchivadu+%282011%29+Telugu+1CD+DTH+Rip+XviD+MP3-%3DMTR%3D-%40Mastitorren","amp;tr":["udp%3A%2F%2Ftracker.openbittorrent.com%3A80","udp%3A%2F%2Fopen.demonii.com%3A1337","udp%3A%2F%2Ftracker.coppersurfer.tk%3A6969","udp%3A%2F%2Fexodus.desync.com%3A6969"],"infoHash":"394ebbf107273c45c44816e86a763235c7eefb67","infoHashBuffer":{"type":"Buffer","data":[57,78,187,241,7,39,60,69,196,72,22,232,106,118,50,53,199,238,251,103]},"announce":[],"urlList":[]}}